<?xml version="1.0" standalone="no"?>
<!DOCTYPE svg PUBLIC "-//W3C//DTD SVG 20010904//EN"
 "http://www.w3.org/TR/2001/REC-SVG-20010904/DTD/svg10.dtd">
<svg version="1.0" xmlns="http://www.w3.org/2000/svg"
 width="500.000000pt" height="500.000000pt" viewBox="0 0 500.000000 500.000000"
 preserveAspectRatio="xMidYMid meet">

<g transform="translate(0.000000,500.000000) scale(0.100000,-0.100000)"
fill="#000000" stroke="none">
<path d="M0 2500 l0 -2500 2500 0 2500 0 0 2500 0 2500 -2500 0 -2500 0 0
-2500z m1790 2160 c204 -18 369 -66 464 -134 l47 -33 133 5 c604 23 1210 -249
1599 -716 469 -563 594 -1356 321 -2027 -50 -123 -117 -251 -175 -337 -22 -31
-39 -61 -39 -65 0 -4 16 -19 35 -32 136 -92 206 -337 160 -556 -54 -254 -251
-425 -576 -501 -64 -15 -147 -18 -616 -21 l-543 -5 0 131 0 131 -99 0 c-430 0
-845 138 -1192 396 -697 519 -982 1432 -703 2248 40 116 143 332 203 424 l41
63 0 519 0 520 418 0 c229 -1 464 -5 522 -10z"/>
<path d="M2403 4359 c3 -13 13 -51 21 -84 45 -174 -2 -368 -118 -486 -46 -48
-150 -109 -184 -109 -30 0 -3 -24 44 -40 206 -70 300 -199 311 -427 7 -137 -6
-212 -54 -311 -74 -156 -227 -264 -457 -324 -76 -20 -111 -22 -598 -25 l-518
-4 -1 423 -1 423 -49 -100 c-195 -399 -229 -894 -93 -1345 195 -646 739 -1145
1401 -1284 133 -28 338 -49 428 -44 l60 3 3 943 2 944 523 -5 c474 -4 532 -6
633 -25 327 -62 494 -194 538 -427 l13 -70 12 55 c50 222 64 388 51 575 -50
675 -427 1250 -1017 1553 -261 134 -498 194 -816 209 l-140 6 6 -24z"/>
<path d="M1420 4215 c0 -14 2 -25 4 -25 8 0 76 42 76 46 0 2 -18 4 -40 4 -36
0 -40 -2 -40 -25z"/>
<path d="M1640 4169 c-41 -22 -108 -61 -148 -86 l-73 -45 3 -91 3 -92 125 2
c197 2 274 42 299 153 16 73 -6 142 -58 179 -41 30 -66 26 -151 -20z"/>
<path d="M1428 3435 c-5 -5 -8 -107 -8 -228 l0 -219 158 4 c135 4 163 7 197
25 49 26 90 68 105 108 14 36 15 141 2 176 -36 92 -118 129 -312 136 -74 3
-138 2 -142 -2z"/>
<path d="M3218 2044 c-5 -4 -8 -97 -8 -207 l0 -199 153 4 c135 3 157 6 200 27
59 29 93 71 107 136 23 101 -23 185 -120 221 -48 18 -319 33 -332 18z"/>
<path d="M4025 1474 c-27 -13 -56 -24 -62 -24 -7 0 -13 -5 -13 -10 0 -11 41
-30 64 -30 12 0 72 78 64 85 -2 1 -25 -8 -53 -21z"/>
<path d="M3210 980 c0 -161 3 -210 13 -210 43 0 402 214 452 270 18 20 18 24
4 48 -20 37 -94 80 -158 92 -29 5 -112 10 -182 10 l-129 0 0 -210z"/>
<path d="M3650 869 c-30 -23 -86 -59 -125 -82 -38 -22 -83 -49 -100 -59 l-30
-19 75 6 c112 10 185 46 217 109 20 38 34 86 25 86 -4 -1 -32 -19 -62 -41z"/>
</g>
</svg>
